<svg xmlns="http://www.w3.org/2000/svg" xmlns:xlink="http://www.w3.org/1999/xlink" width="1280" zoomAndPan="magnify" viewBox="0 0 960 791.999994" height="1056" preserveAspectRatio="xMidYMid meet" version="1.0"><defs><clipPath id="9dfd644408"><path d="M 46 37.332031 L 914 37.332031 L 914 619 L 46 619 Z M 46 37.332031 " clip-rule="nonzero"/></clipPath></defs><g clip-path="url(#9dfd644408)"><path fill="#ffffff" d="M 534 38.070312 C 507.933594 40.773438 490.164062 45.828125 474.902344 54.886719 C 471.796875 56.71875 468.664062 58.511719 465.507812 60.257812 C 434.304688 77.386719 410.226562 91.945312 382.859375 110.234375 C 326.882812 147.644531 274.703125 187.0625 209.683594 241.058594 C 191.855469 255.863281 172.054688 272.90625 150.882812 291.671875 C 134.484375 306.203125 129.925781 310.332031 106.195312 332.140625 C 95.015625 342.417969 83.34375 353.117188 80.257812 355.917969 C 63.75 370.898438 46.582031 387.410156 46.808594 388.089844 C 46.992188 388.648438 54.796875 388.902344 74.859375 389 C 118.304688 389.214844 296.335938 391.175781 308.816406 391.578125 C 314.980469 391.777344 320.339844 391.703125 320.722656 391.417969 C 321.109375 391.136719 322.007812 389.523438 322.71875 387.84375 C 328.121094 375.121094 347.355469 337.332031 362.316406 310.066406 C 417.46875 209.523438 462.953125 145.769531 502.414062 113.679688 C 516.414062 102.296875 531.800781 94.652344 547.460938 91.304688 C 553.796875 89.949219 572.714844 89.960938 578.183594 91.324219 C 586.871094 93.488281 609.398438 106.042969 622.308594 115.914062 C 643.984375 132.484375 673.28125 162.222656 704.496094 199.339844 C 708.582031 204.199219 713.769531 210.328125 716.023438 212.960938 C 720.464844 218.148438 736.433594 237.800781 743.5625 246.851562 C 759.179688 266.6875 767.429688 277.351562 782.210938 296.820312 C 806.335938 328.589844 830.464844 361.207031 849.65625 387.984375 C 855.761719 396.5 856.421875 397.191406 858.828125 397.589844 C 862.152344 398.140625 909.148438 398.167969 911.878906 397.621094 L 913.941406 397.207031 L 912.070312 394.054688 C 909.742188 390.128906 904.359375 382.167969 884.199219 352.859375 C 875.460938 340.15625 866.636719 327.320312 864.582031 324.332031 C 846.796875 298.417969 808.457031 246.140625 786.125 217.34375 C 726.183594 140.050781 678.128906 88.800781 639.980469 61.46875 C 623.386719 49.582031 611.019531 44.832031 586.796875 41.050781 C 564.753906 37.609375 547.738281 36.648438 534 38.070312 M 570.003906 209.589844 C 563.949219 213.667969 559.375 221.457031 556.355469 232.828125 C 555.199219 237.1875 555.054688 254.535156 556.136719 259.277344 C 558.957031 271.625 563.566406 279.550781 570.089844 283.285156 C 573.542969 285.257812 574.140625 285.398438 576.089844 284.695312 C 577.277344 284.265625 579.269531 283.914062 580.515625 283.914062 C 584.675781 283.914062 590.101562 278.71875 591.847656 273.070312 C 592.484375 271 593.425781 268.652344 593.9375 267.847656 C 595.804688 264.910156 597.515625 259.050781 597.515625 255.59375 C 597.515625 253.644531 597.875 251.261719 598.3125 250.296875 C 599.183594 248.386719 598.144531 236.234375 596.714844 231.609375 C 594.082031 223.101562 591.003906 216.84375 587.75 213.390625 C 584.375 209.8125 581.71875 208.503906 577.023438 208.113281 C 573.15625 207.792969 572.445312 207.945312 570.003906 209.589844 M 676.796875 455.503906 C 676.71875 455.582031 673.394531 455.972656 669.414062 456.371094 C 651.140625 458.199219 638.21875 466.027344 631.804688 479.160156 C 628.25 486.429688 627.195312 491.496094 627.191406 501.285156 C 627.1875 511.734375 628.164062 517.15625 631.207031 523.519531 C 637.332031 536.328125 650.058594 543.59375 679.230469 550.933594 C 692.933594 554.378906 696.902344 555.890625 700.28125 558.9375 C 704.25 562.515625 705.488281 565.722656 705.507812 572.46875 C 705.523438 579.152344 704.421875 581.816406 699.921875 585.964844 C 696.636719 588.992188 692.808594 590.5 685.484375 591.660156 C 680.003906 592.527344 674.289062 592.097656 666.183594 590.214844 C 658.84375 588.507812 654.265625 585.851562 649.261719 580.390625 C 647.054688 577.980469 644.839844 576.007812 644.34375 576.007812 C 643.847656 576.007812 642.351562 576.734375 641.027344 577.621094 C 639.699219 578.511719 634.5625 581.863281 629.613281 585.070312 C 624.660156 588.28125 620.609375 591.160156 620.609375 591.476562 C 620.609375 592.972656 624.890625 598.496094 628.8125 602.054688 C 636.652344 609.171875 647.035156 614.207031 658.585938 616.488281 C 665.914062 617.9375 682.613281 618.453125 692.058594 617.527344 C 716.335938 615.140625 730.996094 604.703125 735.691406 586.460938 C 737.226562 580.480469 737.242188 562.730469 735.714844 556.523438 C 731.925781 541.128906 721.863281 532.632812 700.425781 526.726562 L 684.125 522.238281 C 669.605469 518.234375 663.039062 514.070312 659.832031 506.8125 C 657.957031 502.574219 658.398438 494.640625 660.746094 490.371094 C 664.867188 482.882812 676.59375 479.671875 689.070312 482.613281 C 694.824219 483.96875 697.75 485.5625 703.359375 490.402344 C 705.964844 492.652344 708.636719 494.492188 709.296875 494.492188 C 711.523438 494.492188 732.015625 481.457031 732.015625 480.042969 C 732.015625 477.488281 723.824219 468.933594 717.164062 464.53125 C 708.867188 459.042969 698.347656 456.402344 681.554688 455.589844 C 679.019531 455.464844 676.878906 455.429688 676.796875 455.503906 M 376.746094 457.425781 C 365.894531 459.375 358.085938 463.515625 350.933594 471.125 C 343.265625 479.277344 339.449219 488.59375 338.050781 502.546875 C 337.132812 511.71875 337.140625 563.277344 338.0625 571.789062 C 339.074219 581.15625 340.457031 586.375 343.667969 592.988281 C 347.667969 601.214844 353.867188 607.324219 362.527344 611.574219 C 373.25 616.835938 383.410156 618.5625 399.503906 617.863281 C 427.742188 616.632812 442.605469 607.851562 449.070312 588.574219 C 450.472656 584.398438 451.585938 575.207031 450.789062 574.390625 C 450.207031 573.792969 427.199219 570.625 423.199219 570.589844 C 421.152344 570.574219 421.019531 570.761719 418.945312 576.558594 C 417.363281 580.976562 416.140625 583.179688 414.265625 584.980469 C 406.359375 592.570312 392.15625 594.175781 381.765625 588.660156 C 378.355469 586.847656 377.445312 585.933594 375.582031 582.460938 C 371.375 574.609375 369.953125 563.074219 369.960938 536.949219 C 369.972656 504.78125 372.082031 493.292969 379.105469 487.128906 C 383.445312 483.316406 385.695312 482.683594 395.085938 482.644531 C 402.734375 482.609375 403.882812 482.761719 406.636719 484.207031 C 412.425781 487.246094 414.269531 489.625 417.488281 498.226562 L 419.269531 502.984375 L 428.40625 502.875 C 439.058594 502.746094 447.347656 501.742188 448.203125 500.476562 C 448.953125 499.375 448.347656 493.125 446.988281 487.890625 C 443.148438 473.148438 432.535156 462.671875 417.164062 458.457031 C 412.503906 457.175781 409.605469 456.933594 396.785156 456.738281 C 386.332031 456.582031 380.3125 456.785156 376.746094 457.425781 M 110.597656 460.019531 C 109.882812 461.429688 105.160156 474.429688 89.308594 518.605469 C 85.960938 527.945312 82.789062 536.660156 82.265625 537.964844 C 81.738281 539.273438 78.683594 547.679688 75.46875 556.648438 C 72.257812 565.613281 66.257812 582.214844 62.140625 593.539062 C 58.019531 604.863281 54.816406 614.566406 55.023438 615.105469 C 55.339844 615.921875 58.167969 616.085938 71.960938 616.085938 C 86.890625 616.085938 88.617188 615.96875 89.535156 614.894531 C 90.835938 613.371094 92.785156 607.808594 95.894531 596.726562 C 97.261719 591.867188 98.660156 587.359375 99.011719 586.707031 C 99.597656 585.601562 101.660156 585.515625 127.386719 585.515625 C 149.035156 585.515625 155.289062 585.707031 155.851562 586.382812 C 156.246094 586.859375 157.652344 591.0625 158.980469 595.722656 C 162.765625 609.042969 163.953125 612.65625 165.113281 614.429688 L 166.199219 616.085938 L 183.503906 616.085938 C 193.023438 616.085938 200.8125 615.824219 200.8125 615.503906 C 200.8125 614.980469 186.480469 575.058594 172.976562 537.964844 C 164.046875 513.445312 156.835938 493.488281 151.492188 478.527344 C 148.691406 470.683594 145.808594 462.964844 145.085938 461.375 L 143.769531 458.488281 L 127.570312 458.488281 C 111.457031 458.488281 111.371094 458.496094 110.597656 460.019531 M 215.070312 466.132812 C 215.066406 470.335938 215.011719 505.511719 214.953125 544.304688 C 214.855469 604.683594 214.980469 614.925781 215.808594 615.453125 C 217.214844 616.339844 312.628906 616.273438 314.296875 615.382812 C 315.519531 614.726562 315.609375 613.84375 315.609375 602.453125 C 315.609375 592.578125 315.425781 590.160156 314.65625 589.863281 C 314.132812 589.660156 299.292969 589.441406 281.683594 589.375 C 254.074219 589.269531 249.578125 589.113281 248.992188 588.234375 C 248.554688 587.574219 248.347656 565.210938 248.398438 524.71875 C 248.445312 490.347656 248.457031 461.386719 248.421875 460.359375 L 248.359375 458.488281 L 215.074219 458.488281 Z M 519.742188 460.085938 C 519.167969 460.960938 517.351562 465.46875 515.710938 470.105469 C 512.898438 478.039062 496.425781 523.683594 484.976562 555.289062 C 480.582031 567.394531 476.171875 579.5 471.75 591.597656 C 467.320312 603.71875 463.695312 614.003906 463.695312 614.449219 C 463.695312 614.894531 464.179688 615.445312 464.769531 615.671875 C 466.691406 616.410156 496.300781 616.132812 497.738281 615.363281 C 499.40625 614.46875 499.703125 613.730469 504.15625 599.21875 C 506.144531 592.746094 508.128906 587.015625 508.570312 586.484375 C 509.242188 585.675781 513.949219 585.515625 537.085938 585.515625 L 564.796875 585.515625 L 566.160156 589.761719 C 566.90625 592.097656 568.648438 597.980469 570.03125 602.839844 C 572.988281 613.226562 573.921875 615.257812 575.960938 615.757812 C 576.792969 615.960938 584.507812 616.042969 593.101562 615.9375 L 608.722656 615.746094 L 608.648438 613.367188 C 608.605469 612.058594 607.628906 608.542969 606.472656 605.554688 C 605.320312 602.566406 597.460938 581.015625 589.015625 557.667969 C 580.566406 534.316406 571.539062 509.402344 568.953125 502.304688 C 565.785156 493.589844 562.625 484.871094 559.476562 476.152344 C 556.847656 468.867188 554.246094 461.914062 553.699219 460.699219 L 552.703125 458.488281 L 520.785156 458.488281 Z M 805.113281 460.019531 C 804.574219 460.859375 803.21875 464.144531 802.097656 467.320312 C 800.976562 470.496094 793.433594 491.433594 785.339844 513.851562 C 777.246094 536.269531 768.238281 561.335938 765.320312 569.554688 C 762.40625 577.773438 757.691406 590.695312 754.847656 598.273438 C 752.003906 605.847656 749.675781 612.957031 749.675781 614.066406 L 749.675781 616.085938 L 766.210938 616.085938 C 781.113281 616.085938 782.851562 615.96875 783.789062 614.894531 C 784.859375 613.675781 788.253906 604.140625 791.46875 593.328125 C 792.46875 589.964844 793.601562 586.828125 793.988281 586.359375 C 794.535156 585.6875 800.773438 585.539062 822.515625 585.679688 L 850.347656 585.855469 L 851.519531 588.945312 C 852.164062 590.644531 853.375 594.769531 854.207031 598.117188 C 856.753906 608.324219 858.492188 613.496094 859.816406 614.820312 C 860.976562 615.984375 862.394531 616.085938 877.402344 616.085938 C 892.253906 616.085938 893.769531 615.980469 894.179688 614.910156 C 894.667969 613.628906 892.304688 606.644531 879.519531 571.589844 C 875.023438 559.261719 864.097656 529.152344 855.238281 504.679688 C 846.382812 480.210938 838.839844 459.804688 838.476562 459.339844 C 837.980469 458.703125 833.839844 458.488281 821.953125 458.488281 C 806.242188 458.488281 806.078125 458.503906 805.113281 460.019531 M 123.351562 509.605469 C 121.433594 515.679688 117.132812 528.925781 113.789062 539.046875 C 108.359375 555.480469 107.421875 559.535156 109.011719 559.769531 C 112.402344 560.269531 145.703125 560.113281 146.679688 559.589844 C 148.253906 558.75 148.34375 559.15625 143.117188 543.742188 C 140.835938 537.015625 136.960938 524.816406 134.503906 516.632812 C 129.53125 500.0625 128.96875 498.566406 127.710938 498.566406 C 127.171875 498.566406 125.484375 502.839844 123.351562 509.605469 M 535.804688 499.757812 C 535.460938 500.410156 533.757812 505.378906 532.015625 510.796875 C 530.273438 516.210938 526.042969 529.160156 522.613281 539.566406 C 517.027344 556.527344 516.496094 558.570312 517.480469 559.289062 C 518.960938 560.371094 555.035156 560.335938 556.121094 559.253906 C 556.65625 558.71875 555.269531 553.550781 551.101562 540.597656 C 547.933594 530.742188 543.921875 518.097656 542.1875 512.492188 C 537.59375 497.660156 537.257812 496.984375 535.804688 499.757812 M 821.136719 499.714844 C 820.789062 500.390625 819.875 502.933594 819.105469 505.359375 C 818.339844 507.789062 814.132812 520.730469 809.765625 534.117188 C 805.113281 548.371094 802.070312 558.707031 802.425781 559.0625 C 803.242188 559.878906 840.714844 559.960938 841.523438 559.152344 C 841.914062 558.761719 840.207031 552.4375 837.070312 542.636719 C 834.269531 533.90625 830.042969 520.515625 827.679688 512.886719 C 825.3125 505.253906 823.015625 498.894531 822.574219 498.75 C 822.132812 498.605469 821.488281 499.039062 821.136719 499.714844 " fill-opacity="1" fill-rule="evenodd"/></g></svg>